<svg xmlns="http://www.w3.org/2000/svg" xmlns:xlink="http://www.w3.org/1999/xlink" width="500" zoomAndPan="magnify" viewBox="0 0 375 374.999991" height="500" preserveAspectRatio="xMidYMid meet" version="1.0"><defs><filter x="0%" y="0%" width="100%" height="100%" id="8ad8a1c9a7"><feColorMatrix values="0 0 0 0 1 0 0 0 0 1 0 0 0 0 1 0 0 0 1 0" color-interpolation-filters="sRGB"/></filter><clipPath id="aa4976d2c5"><path d="M 370.878906 372.753906 L 372.328125 372.753906 L 372.328125 373.972656 L 370.878906 373.972656 Z M 370.878906 372.753906 " clip-rule="nonzero"/></clipPath><clipPath id="8c6055827e"><path d="M 372.300781 373.199219 C 371.699219 374.175781 371.101562 374.023438 370.949219 373.800781 C 370.800781 373.574219 370.949219 372.976562 371.101562 372.824219 C 371.324219 372.675781 372.074219 372.824219 372.074219 372.824219 " clip-rule="nonzero"/></clipPath><mask id="0e2de3ae63"><g filter="url(#8ad8a1c9a7)"><rect x="-37.5" width="450" fill="#000000" y="-37.499999" height="449.999989" fill-opacity="0.01"/></g></mask><clipPath id="ad24e92bd5"><path d="M 0.878906 0.753906 L 2.328125 0.753906 L 2.328125 1.972656 L 0.878906 1.972656 Z M 0.878906 0.753906 " clip-rule="nonzero"/></clipPath><clipPath id="49a0cb0767"><path d="M 2.300781 1.199219 C 1.699219 2.175781 1.101562 2.023438 0.949219 1.800781 C 0.800781 1.574219 0.949219 0.976562 1.101562 0.824219 C 1.324219 0.675781 2.074219 0.824219 2.074219 0.824219 " clip-rule="nonzero"/></clipPath><clipPath id="b1bfc0d6c7"><rect x="0" width="3" y="0" height="2"/></clipPath></defs><path fill="#ffffff" d="M 362.5 143.75 C 362.5 164.429688 345.679688 181.25 325 181.25 L 284.007812 181.25 C 279.394531 163.304688 263.109375 150 243.75 150 L 243.75 162.5 C 256.128906 162.5 266.675781 170.3125 270.875 181.25 L 160.546875 181.25 C 162.230469 174.414062 165.699219 168.140625 170.800781 163.035156 L 173.167969 160.667969 L 164.332031 151.832031 L 161.960938 154.199219 C 154.539062 161.621094 149.683594 170.921875 147.777344 181.03125 C 131.589844 179.859375 118.75 166.480469 118.75 150 C 118.75 132.761719 132.761719 118.75 150 118.75 L 206.101562 118.75 C 205.371094 128.003906 201.441406 136.597656 194.824219 143.210938 L 192.457031 145.582031 L 201.292969 154.417969 L 203.660156 152.050781 C 212.644531 143.066406 217.847656 131.324219 218.601562 118.75 L 271.433594 118.75 C 272.703125 127.222656 276.5625 135.398438 283.082031 141.917969 L 291.917969 133.082031 C 280.566406 121.726562 280.566406 103.269531 291.917969 91.917969 L 283.082031 83.082031 C 276.5625 89.597656 272.703125 97.777344 271.433594 106.25 L 174.460938 106.25 C 171.949219 89.625 159.59375 76.246094 143.53125 72.191406 C 147.605469 65.769531 150 58.15625 150 50 L 137.5 50 C 137.5 66.039062 124.4375 79.101562 108.398438 79.101562 L 108.398438 91.601562 C 117.773438 91.601562 126.414062 88.453125 133.398438 83.179688 L 133.398438 83.398438 C 147.289062 83.398438 158.910156 93.1875 161.792969 106.25 L 150 106.25 C 125.878906 106.25 106.25 125.878906 106.25 150 C 106.25 162.230469 111.304688 173.289062 119.433594 181.25 L 80.835938 181.25 C 79.46875 169.847656 74.414062 159.300781 66.160156 151.074219 L 63.792969 148.707031 L 54.957031 157.542969 L 57.324219 159.910156 C 63.183594 165.796875 66.917969 173.21875 68.210938 181.25 L 50 181.25 C 29.320312 181.25 12.5 164.429688 12.5 143.75 C 12.5 132.617188 17.40625 122.117188 25.976562 114.964844 C 26.390625 114.625 26.683594 114.207031 27 113.792969 C 37.769531 106.175781 52.492188 106.8125 62.648438 115.550781 C 63.378906 125.511719 67.554688 134.789062 74.683594 141.917969 L 83.519531 133.082031 C 78.027344 127.585938 75 120.261719 75 112.5 C 75 104.734375 78.027344 97.410156 83.519531 91.917969 L 74.683594 83.082031 C 69.554688 88.207031 65.964844 94.433594 64.0625 101.246094 C 52.195312 94.605469 37.769531 94.214844 25.609375 100.097656 C 25.242188 97.996094 25 95.898438 25 93.75 C 25 73.070312 41.820312 56.25 62.5 56.25 C 66.480469 56.25 70.433594 56.882812 74.292969 58.179688 C 75.953125 58.742188 77.78125 58.542969 79.296875 57.691406 C 80.808594 56.859375 81.910156 55.394531 82.324219 53.710938 C 86.402344 36.816406 101.367188 25 118.75 25 C 128.171875 25 137.207031 28.5625 144.1875 35.007812 C 145.605469 36.328125 147.605469 36.914062 149.535156 36.570312 C 151.464844 36.207031 153.125 34.960938 154.003906 33.226562 C 160.425781 20.433594 173.265625 12.5 187.5 12.5 C 200.121094 12.5 211.621094 18.773438 218.554688 29.078125 C 215.429688 32.691406 213.011719 36.695312 211.328125 40.917969 C 204.394531 36.058594 196.167969 33.398438 187.5 33.398438 L 187.5 45.898438 C 195.261719 45.898438 202.585938 48.925781 208.082031 54.417969 L 208.519531 53.980469 C 207.910156 65.382812 211.890625 76.976562 220.582031 85.667969 L 229.417969 76.832031 C 218.140625 65.550781 218.089844 47.242188 229.246094 35.863281 C 229.785156 35.621094 230.371094 35.398438 230.808594 34.984375 C 236.988281 29.273438 244.675781 25.878906 253.003906 25.148438 C 269.628906 23.730469 285.230469 33.863281 291.113281 49.21875 C 279.832031 56.738281 264.378906 55.542969 254.417969 45.582031 L 245.582031 54.417969 C 253.6875 62.523438 264.332031 66.578125 275 66.578125 C 283.789062 66.578125 292.527344 63.792969 299.902344 58.277344 C 300.171875 58.226562 300.4375 58.277344 300.683594 58.179688 C 304.539062 56.910156 308.519531 56.25 312.5 56.25 C 333.179688 56.25 350 73.070312 350 93.75 C 350 98.21875 349.121094 102.613281 347.535156 106.8125 C 327.710938 109.984375 312.5 127.148438 312.5 147.851562 L 325 147.851562 C 325 132.203125 337.449219 119.480469 352.976562 118.871094 C 359.058594 125.683594 362.5 134.496094 362.5 143.75 Z M 195.898438 226.539062 C 193.921875 228.269531 193.238281 231.003906 194.140625 233.445312 C 195.066406 235.886719 197.386719 237.5 200 237.5 L 257.910156 237.5 L 139.476562 337.574219 L 181.078125 272.09375 C 182.300781 270.164062 182.371094 267.75 181.273438 265.746094 C 180.175781 263.746094 178.074219 262.5 175.804688 262.5 L 107.226562 262.5 L 165.40625 193.75 L 233.375 193.75 Z M 362.5 93.75 C 362.5 66.1875 340.0625 43.75 312.5 43.75 C 309.277344 43.75 306.078125 44.066406 302.929688 44.703125 C 295.066406 24.21875 274.242188 10.742188 251.902344 12.695312 C 243.335938 13.453125 235.277344 16.308594 228.269531 21.09375 C 218.96875 7.933594 203.929688 0 187.5 0 C 171.042969 0 156.03125 7.933594 146.726562 21.117188 C 138.5 15.527344 128.785156 12.5 118.75 12.5 C 97.730469 12.5 79.34375 25.464844 72.070312 44.679688 C 68.898438 44.066406 65.699219 43.75 62.5 43.75 C 34.9375 43.75 12.5 66.1875 12.5 93.75 C 12.5 98.558594 13.207031 103.269531 14.574219 107.859375 C 14.503906 107.933594 14.40625 108.007812 14.332031 108.082031 L 14.648438 108.398438 C 5.296875 117.75 0 130.394531 0 143.75 C 0 171.3125 22.4375 193.75 50 193.75 L 149.023438 193.75 L 88.964844 264.722656 C 87.402344 266.578125 87.058594 269.164062 88.085938 271.386719 C 89.109375 273.582031 91.308594 275 93.75 275 L 164.429688 275 L 106.980469 365.40625 C 105.320312 368.015625 105.835938 371.433594 108.152344 373.460938 C 109.324219 374.488281 110.789062 375 112.28125 375 C 113.695312 375 115.136719 374.511719 116.308594 373.511719 L 279.027344 236.035156 C 281.03125 234.324219 281.761719 231.566406 280.882812 229.101562 C 279.957031 226.636719 277.613281 225 275 225 L 216.625 225 L 252.34375 193.75 L 325 193.75 C 352.5625 193.75 375 171.3125 375 143.75 C 375 130.371094 369.703125 117.722656 360.300781 108.347656 C 361.765625 103.613281 362.5 98.730469 362.5 93.75 " fill-opacity="1" fill-rule="nonzero"/><path fill="#ffffff" d="M 142.625 242.820312 L 152.148438 250.925781 L 170.898438 228.785156 L 161.375 220.703125 L 142.625 242.820312 " fill-opacity="1" fill-rule="nonzero"/><path fill="#ffffff" d="M 169.140625 211.011719 L 178.757812 219.019531 L 186.058594 210.253906 L 176.441406 202.246094 L 169.140625 211.011719 " fill-opacity="1" fill-rule="nonzero"/><g clip-path="url(#aa4976d2c5)"><g clip-path="url(#8c6055827e)"><g mask="url(#0e2de3ae63)"><g transform="matrix(1, 0, 0, 1, 370, 372)"><g clip-path="url(#b1bfc0d6c7)"><g clip-path="url(#ad24e92bd5)"><g clip-path="url(#49a0cb0767)"><rect x="-452.5" width="540" fill="#ffffff" height="539.999987" y="-454.499998" fill-opacity="1"/></g></g></g></g></g></g></g></svg>