<svg xmlns="http://www.w3.org/2000/svg" xmlns:xlink="http://www.w3.org/1999/xlink" width="500" zoomAndPan="magnify" viewBox="0 0 375 374.999991" height="500" preserveAspectRatio="xMidYMid meet" version="1.0"><defs><filter x="0%" y="0%" width="100%" height="100%" id="42ac7aefa5"><feColorMatrix values="0 0 0 0 1 0 0 0 0 1 0 0 0 0 1 0 0 0 1 0" color-interpolation-filters="sRGB"/></filter><clipPath id="216fe8963a"><path d="M 0 34 L 375 34 L 375 340.734375 L 0 340.734375 Z M 0 34 " clip-rule="nonzero"/></clipPath><clipPath id="32606469cf"><path d="M 267.703125 318.402344 L 272.253906 318.402344 L 272.253906 322.957031 L 267.703125 322.957031 Z M 267.703125 318.402344 " clip-rule="nonzero"/></clipPath><clipPath id="d68deed7ea"><path d="M 270 322.949219 C 267.75 321.449219 267.675781 320.398438 267.898438 319.875 C 268.125 319.273438 268.875 318.601562 269.476562 318.523438 C 270.074219 318.375 271.050781 318.601562 271.5 319.050781 C 271.949219 319.5 272.324219 320.476562 272.175781 321.074219 C 272.101562 321.675781 271.5 322.5 270.898438 322.726562 C 270.375 323.023438 269.324219 322.949219 268.800781 322.648438 C 268.273438 322.273438 267.824219 321.375 267.75 320.773438 C 267.675781 320.324219 267.824219 319.800781 268.125 319.425781 C 268.5 318.976562 269.398438 318.449219 270 318.449219 C 270.523438 318.375 271.125 318.675781 271.5 318.976562 C 271.875 319.351562 272.175781 319.875 272.25 320.398438 C 272.25 321 271.875 321.976562 271.5 322.351562 C 271.125 322.726562 270 322.949219 270 322.949219 " clip-rule="nonzero"/></clipPath><mask id="1aa7f43a4d"><g filter="url(#42ac7aefa5)"><rect x="-37.5" width="450" fill="#000000" y="-37.499999" height="449.999989" fill-opacity="0.01"/></g></mask><clipPath id="67e991f0e8"><path d="M 0.703125 0.402344 L 5.253906 0.402344 L 5.253906 4.957031 L 0.703125 4.957031 Z M 0.703125 0.402344 " clip-rule="nonzero"/></clipPath><clipPath id="21640f1b66"><path d="M 3 4.949219 C 0.75 3.449219 0.675781 2.398438 0.898438 1.875 C 1.125 1.273438 1.875 0.601562 2.476562 0.523438 C 3.074219 0.375 4.050781 0.601562 4.5 1.050781 C 4.949219 1.5 5.324219 2.476562 5.175781 3.074219 C 5.101562 3.675781 4.5 4.5 3.898438 4.726562 C 3.375 5.023438 2.324219 4.949219 1.800781 4.648438 C 1.273438 4.273438 0.824219 3.375 0.75 2.773438 C 0.675781 2.324219 0.824219 1.800781 1.125 1.425781 C 1.5 0.976562 2.398438 0.449219 3 0.449219 C 3.523438 0.375 4.125 0.675781 4.5 0.976562 C 4.875 1.351562 5.175781 1.875 5.25 2.398438 C 5.25 3 4.875 3.976562 4.5 4.351562 C 4.125 4.726562 3 4.949219 3 4.949219 " clip-rule="nonzero"/></clipPath><clipPath id="6091746ccb"><rect x="0" width="6" y="0" height="5"/></clipPath></defs><path fill="#ffffff" d="M 147.132812 144.953125 L 181.222656 85.292969 L 210.820312 102.207031 L 191.304688 136.363281 L 230.113281 136.363281 C 236.191406 136.363281 241.808594 139.597656 244.855469 144.851562 C 247.90625 150.109375 247.929688 156.589844 244.914062 161.867188 L 210.820312 221.523438 L 181.222656 204.613281 L 200.742188 170.453125 L 161.933594 170.453125 C 155.855469 170.453125 150.238281 167.21875 147.1875 161.964844 C 144.140625 156.710938 144.117188 150.226562 147.132812 144.953125 Z M 147.132812 144.953125 " fill-opacity="1" fill-rule="evenodd"/><g clip-path="url(#216fe8963a)"><path fill="#ffffff" d="M 196.023438 68.183594 C 178.621094 68.183594 163.613281 78.617188 156.996094 93.644531 C 153.695312 101.144531 145.519531 105.230469 137.539062 103.378906 C 134.441406 102.65625 131.195312 102.273438 127.839844 102.273438 C 106.253906 102.273438 88.394531 118.335938 85.605469 139.15625 C 84.585938 146.773438 78.59375 152.769531 70.972656 153.789062 C 50.15625 156.574219 34.089844 174.4375 34.089844 196.023438 C 34.089844 217.476562 49.960938 235.253906 70.59375 238.203125 C 71.308594 238.304688 72.003906 238.449219 72.683594 238.636719 L 209.660156 238.636719 C 217.1875 238.636719 223.820312 243.574219 225.984375 250.785156 L 239.152344 294.667969 C 241.3125 301.878906 247.953125 306.816406 255.480469 306.816406 L 261 306.816406 C 272.417969 306.816406 280.605469 295.8125 277.324219 284.875 L 270.039062 260.578125 C 268.488281 255.417969 269.472656 249.832031 272.6875 245.507812 C 275.652344 241.519531 280.195312 239.042969 285.109375 238.683594 C 287.382812 238.035156 289.792969 237.859375 292.1875 238.203125 C 294.171875 238.488281 296.210938 238.636719 298.296875 238.636719 C 321.832031 238.636719 340.910156 219.558594 340.910156 196.023438 C 340.910156 174.4375 324.84375 156.574219 304.027344 153.789062 C 296.40625 152.769531 290.414062 146.773438 289.394531 139.15625 C 286.691406 118.992188 269.839844 103.277344 249.179688 102.320312 C 242.886719 102.027344 237.265625 98.285156 234.566406 92.585938 C 227.71875 78.125 213.015625 68.183594 196.023438 68.183594 Z M 309.050781 271.980469 L 309.976562 275.078125 C 319.820312 307.886719 295.253906 340.910156 261 340.910156 L 255.480469 340.910156 C 232.894531 340.910156 212.988281 326.097656 206.5 304.464844 L 196.976562 272.726562 L 68.183594 272.726562 C 65.570312 272.726562 63.097656 272.140625 60.882812 271.089844 C 26.105469 263.792969 0 232.96875 0 196.023438 C 0 161.402344 22.925781 132.15625 54.425781 122.609375 C 63.976562 91.105469 93.21875 68.183594 127.839844 68.183594 C 129.289062 68.183594 130.726562 68.222656 132.160156 68.300781 C 145.894531 47.695312 169.355469 34.089844 196.023438 34.089844 C 223.140625 34.089844 246.945312 48.164062 260.574219 69.351562 C 289.175781 74.398438 312.289062 95.269531 320.574219 122.609375 C 352.074219 132.15625 375 161.402344 375 196.023438 C 375 234.738281 346.320312 266.75 309.050781 271.980469 Z M 309.050781 271.980469 " fill-opacity="1" fill-rule="evenodd"/></g><g clip-path="url(#32606469cf)"><g clip-path="url(#d68deed7ea)"><g mask="url(#1aa7f43a4d)"><g transform="matrix(1, 0, 0, 1, 267, 318)"><g clip-path="url(#6091746ccb)"><g clip-path="url(#67e991f0e8)"><g clip-path="url(#21640f1b66)"><rect x="-349.5" width="540" fill="#9546ed" height="539.999987" y="-400.499998" fill-opacity="1"/></g></g></g></g></g></g></g></svg>