<svg xmlns="http://www.w3.org/2000/svg" xmlns:xlink="http://www.w3.org/1999/xlink" width="500" zoomAndPan="magnify" viewBox="0 0 375 374.999991" height="500" preserveAspectRatio="xMidYMid meet" version="1.0"><defs><clipPath id="026b33f66e"><path d="M 187.5 0 C 83.945312 0 0 83.945312 0 187.5 C 0 291.054688 83.945312 375 187.5 375 C 291.054688 375 375 291.054688 375 187.5 C 375 83.945312 291.054688 0 187.5 0 Z M 187.5 0 " clip-rule="nonzero"/></clipPath><clipPath id="1d780348b3"><path d="M 59.242188 59.242188 L 315.742188 59.242188 L 315.742188 315.742188 L 59.242188 315.742188 Z M 59.242188 59.242188 " clip-rule="nonzero"/></clipPath></defs><g clip-path="url(#026b33f66e)"><rect x="-37.5" width="450" fill="#7913af" y="-37.499999" height="449.999989" fill-opacity="1"/></g><g clip-path="url(#1d780348b3)"><path fill="#ffffff" d="M 307.203125 157.570312 C 307.203125 171.714844 295.695312 183.222656 281.550781 183.222656 L 253.511719 183.222656 C 250.355469 170.949219 239.21875 161.847656 225.972656 161.847656 L 225.972656 170.398438 C 234.441406 170.398438 241.65625 175.742188 244.527344 183.222656 L 169.058594 183.222656 C 170.210938 178.546875 172.585938 174.253906 176.074219 170.765625 L 177.695312 169.144531 L 171.648438 163.097656 L 170.027344 164.71875 C 164.953125 169.796875 161.628906 176.15625 160.328125 183.070312 C 149.253906 182.269531 140.46875 173.117188 140.46875 161.847656 C 140.46875 150.054688 150.054688 140.46875 161.847656 140.46875 L 200.222656 140.46875 C 199.722656 146.800781 197.03125 152.679688 192.507812 157.203125 L 190.886719 158.824219 L 196.933594 164.867188 L 198.550781 163.25 C 204.699219 157.101562 208.253906 149.070312 208.773438 140.46875 L 244.910156 140.46875 C 245.78125 146.265625 248.417969 151.859375 252.878906 156.320312 L 258.921875 150.273438 C 251.15625 142.507812 251.15625 129.882812 258.921875 122.117188 L 252.878906 116.070312 C 248.417969 120.53125 245.78125 126.125 244.910156 131.917969 L 178.578125 131.917969 C 176.859375 120.546875 168.410156 111.394531 157.421875 108.625 C 160.210938 104.230469 161.847656 99.019531 161.847656 93.441406 L 153.296875 93.441406 C 153.296875 104.414062 144.359375 113.347656 133.390625 113.347656 L 133.390625 121.898438 C 139.800781 121.898438 145.714844 119.746094 150.488281 116.136719 L 150.488281 116.289062 C 159.992188 116.289062 167.941406 122.984375 169.914062 131.917969 L 161.847656 131.917969 C 145.347656 131.917969 131.917969 145.347656 131.917969 161.847656 C 131.917969 170.210938 135.375 177.777344 140.9375 183.222656 L 114.535156 183.222656 C 113.601562 175.421875 110.144531 168.207031 104.5 162.582031 L 102.878906 160.960938 L 96.832031 167.007812 L 98.453125 168.625 C 102.460938 172.652344 105.015625 177.726562 105.902344 183.222656 L 93.441406 183.222656 C 79.296875 183.222656 67.792969 171.714844 67.792969 157.570312 C 67.792969 149.957031 71.148438 142.773438 77.011719 137.882812 C 77.292969 137.648438 77.496094 137.363281 77.710938 137.078125 C 85.078125 131.871094 95.144531 132.304688 102.09375 138.28125 C 102.59375 145.097656 105.449219 151.441406 110.328125 156.320312 L 116.371094 150.273438 C 112.613281 146.515625 110.542969 141.503906 110.542969 136.195312 C 110.542969 130.882812 112.613281 125.875 116.371094 122.117188 L 110.328125 116.070312 C 106.820312 119.578125 104.363281 123.835938 103.0625 128.496094 C 94.945312 123.953125 85.078125 123.6875 76.757812 127.710938 C 76.507812 126.273438 76.34375 124.839844 76.34375 123.371094 C 76.34375 109.222656 87.847656 97.71875 101.992188 97.71875 C 104.714844 97.71875 107.421875 98.152344 110.058594 99.039062 C 111.195312 99.421875 112.449219 99.289062 113.484375 98.703125 C 114.519531 98.136719 115.269531 97.132812 115.554688 95.980469 C 118.34375 84.425781 128.578125 76.34375 140.46875 76.34375 C 146.917969 76.34375 153.09375 78.78125 157.871094 83.1875 C 158.839844 84.089844 160.210938 84.492188 161.527344 84.257812 C 162.847656 84.007812 163.984375 83.15625 164.585938 81.96875 C 168.976562 73.21875 177.761719 67.792969 187.496094 67.792969 C 196.132812 67.792969 203.996094 72.082031 208.738281 79.132812 C 206.601562 81.601562 204.949219 84.339844 203.796875 87.230469 C 199.054688 83.90625 193.425781 82.085938 187.496094 82.085938 L 187.496094 90.636719 C 192.808594 90.636719 197.816406 92.707031 201.574219 96.464844 L 201.875 96.164062 C 201.457031 103.964844 204.179688 111.898438 210.125 117.839844 L 216.171875 111.796875 C 208.457031 104.082031 208.421875 91.554688 216.054688 83.773438 C 216.421875 83.605469 216.824219 83.457031 217.125 83.171875 C 221.347656 79.265625 226.609375 76.945312 232.304688 76.441406 C 243.675781 75.472656 254.347656 82.40625 258.371094 92.910156 C 250.65625 98.050781 240.085938 97.234375 233.273438 90.421875 L 227.226562 96.464844 C 232.769531 102.011719 240.050781 104.78125 247.351562 104.78125 C 253.363281 104.78125 259.339844 102.878906 264.382812 99.105469 C 264.566406 99.070312 264.75 99.105469 264.917969 99.039062 C 267.558594 98.167969 270.277344 97.71875 273 97.71875 C 287.144531 97.71875 298.652344 109.222656 298.652344 123.371094 C 298.652344 126.425781 298.050781 129.429688 296.964844 132.304688 C 283.40625 134.476562 273 146.214844 273 160.375 L 281.550781 160.375 C 281.550781 149.671875 290.070312 140.972656 300.691406 140.554688 C 304.847656 145.214844 307.203125 151.242188 307.203125 157.570312 Z M 193.242188 214.199219 C 191.890625 215.386719 191.421875 217.257812 192.039062 218.925781 C 192.675781 220.597656 194.261719 221.699219 196.046875 221.699219 L 235.660156 221.699219 L 154.648438 290.152344 L 183.105469 245.363281 C 183.941406 244.042969 183.992188 242.390625 183.238281 241.019531 C 182.488281 239.652344 181.050781 238.800781 179.496094 238.800781 L 132.585938 238.800781 L 172.382812 191.773438 L 218.875 191.773438 Z M 307.203125 123.371094 C 307.203125 104.515625 291.855469 89.167969 273 89.167969 C 270.796875 89.167969 268.609375 89.386719 266.453125 89.820312 C 261.078125 75.808594 246.832031 66.589844 231.550781 67.925781 C 225.691406 68.441406 220.179688 70.398438 215.386719 73.671875 C 209.023438 64.667969 198.738281 59.242188 187.496094 59.242188 C 176.242188 59.242188 165.972656 64.667969 159.609375 73.6875 C 153.980469 69.863281 147.332031 67.792969 140.46875 67.792969 C 126.089844 67.792969 113.515625 76.660156 108.539062 89.800781 C 106.367188 89.386719 104.179688 89.167969 101.992188 89.167969 C 83.140625 89.167969 67.792969 104.515625 67.792969 123.371094 C 67.792969 126.660156 68.277344 129.882812 69.210938 133.023438 C 69.160156 133.070312 69.09375 133.121094 69.042969 133.171875 L 69.261719 133.390625 C 62.867188 139.785156 59.242188 148.4375 59.242188 157.570312 C 59.242188 176.425781 74.589844 191.773438 93.441406 191.773438 L 161.179688 191.773438 L 120.097656 240.320312 C 119.027344 241.589844 118.792969 243.359375 119.496094 244.878906 C 120.195312 246.382812 121.699219 247.351562 123.371094 247.351562 L 171.714844 247.351562 L 132.421875 309.191406 C 131.285156 310.976562 131.636719 313.316406 133.222656 314.699219 C 134.023438 315.402344 135.027344 315.753906 136.042969 315.753906 C 137.011719 315.753906 138 315.417969 138.800781 314.734375 L 250.105469 220.695312 C 251.476562 219.527344 251.976562 217.640625 251.375 215.953125 C 250.738281 214.265625 249.136719 213.148438 247.351562 213.148438 L 207.421875 213.148438 L 231.851562 191.773438 L 281.550781 191.773438 C 300.40625 191.773438 315.753906 176.425781 315.753906 157.570312 C 315.753906 148.417969 312.128906 139.769531 305.699219 133.355469 C 306.703125 130.117188 307.203125 126.777344 307.203125 123.371094 " fill-opacity="1" fill-rule="nonzero"/></g><path fill="#ffffff" d="M 156.804688 225.339844 L 163.316406 230.882812 L 176.140625 215.738281 L 169.628906 210.210938 L 156.804688 225.339844 " fill-opacity="1" fill-rule="nonzero"/><path fill="#ffffff" d="M 174.9375 203.578125 L 181.519531 209.058594 L 186.511719 203.0625 L 179.933594 197.585938 L 174.9375 203.578125 " fill-opacity="1" fill-rule="nonzero"/></svg>