<svg xmlns="http://www.w3.org/2000/svg" xmlns:xlink="http://www.w3.org/1999/xlink" width="500" zoomAndPan="magnify" viewBox="0 0 375 374.999991" height="500" preserveAspectRatio="xMidYMid meet" version="1.0"><defs><filter x="0%" y="0%" width="100%" height="100%" id="f51b17543a"><feColorMatrix values="0 0 0 0 1 0 0 0 0 1 0 0 0 0 1 0 0 0 1 0" color-interpolation-filters="sRGB"/></filter><clipPath id="a09a9f5e13"><path d="M 3.207031 3.207031 L 371.457031 3.207031 L 371.457031 371.457031 L 3.207031 371.457031 Z M 3.207031 3.207031 " clip-rule="nonzero"/></clipPath><clipPath id="46a389be29"><path d="M 184.265625 335.390625 L 188.5625 335.390625 L 188.5625 338.996094 L 184.265625 338.996094 Z M 184.265625 335.390625 " clip-rule="nonzero"/></clipPath><clipPath id="810095d164"><path d="M 188.550781 336.675781 C 186.601562 339.675781 184.800781 339.148438 184.425781 338.476562 C 184.050781 337.875 184.425781 336 184.949219 335.550781 C 185.550781 335.101562 187.949219 335.773438 187.949219 335.773438 " clip-rule="nonzero"/></clipPath><mask id="a861da2c82"><g filter="url(#f51b17543a)"><rect x="-37.5" width="450" fill="#000000" y="-37.499999" height="449.999989" fill-opacity="0.01"/></g></mask><clipPath id="f9594bbc0c"><path d="M 0.265625 0.390625 L 4.5625 0.390625 L 4.5625 3.996094 L 0.265625 3.996094 Z M 0.265625 0.390625 " clip-rule="nonzero"/></clipPath><clipPath id="c6dc2cf0f6"><path d="M 4.550781 1.675781 C 2.601562 4.675781 0.800781 4.148438 0.425781 3.476562 C 0.0507812 2.875 0.425781 1 0.949219 0.550781 C 1.550781 0.101562 3.949219 0.773438 3.949219 0.773438 " clip-rule="nonzero"/></clipPath><clipPath id="ee4a6177bf"><rect x="0" width="5" y="0" height="4"/></clipPath></defs><g clip-path="url(#a09a9f5e13)"><path fill="#380454" d="M 371.785156 187.496094 C 371.785156 190.511719 371.710938 193.523438 371.5625 196.535156 C 371.414062 199.550781 371.191406 202.554688 370.894531 205.558594 C 370.601562 208.558594 370.230469 211.550781 369.789062 214.535156 C 369.347656 217.519531 368.832031 220.488281 368.242188 223.445312 C 367.652344 226.40625 366.992188 229.347656 366.261719 232.273438 C 365.527344 235.199219 364.722656 238.105469 363.847656 240.992188 C 362.972656 243.875 362.027344 246.738281 361.011719 249.578125 C 359.996094 252.417969 358.910156 255.230469 357.753906 258.019531 C 356.601562 260.804688 355.378906 263.5625 354.089844 266.289062 C 352.800781 269.015625 351.445312 271.707031 350.023438 274.367188 C 348.601562 277.027344 347.113281 279.652344 345.5625 282.238281 C 344.011719 284.824219 342.402344 287.371094 340.726562 289.878906 C 339.050781 292.386719 337.3125 294.851562 335.515625 297.273438 C 333.71875 299.699219 331.863281 302.074219 329.953125 304.40625 C 328.039062 306.738281 326.070312 309.019531 324.042969 311.253906 C 322.019531 313.488281 319.9375 315.671875 317.804688 317.804688 C 315.671875 319.9375 313.488281 322.019531 311.253906 324.042969 C 309.019531 326.070312 306.738281 328.039062 304.40625 329.953125 C 302.074219 331.863281 299.699219 333.71875 297.273438 335.515625 C 294.851562 337.3125 292.386719 339.050781 289.878906 340.726562 C 287.371094 342.402344 284.824219 344.011719 282.238281 345.5625 C 279.652344 347.113281 277.027344 348.601562 274.367188 350.023438 C 271.707031 351.445312 269.015625 352.800781 266.289062 354.089844 C 263.5625 355.378906 260.804688 356.601562 258.019531 357.753906 C 255.230469 358.910156 252.417969 359.996094 249.578125 361.011719 C 246.738281 362.027344 243.875 362.972656 240.992188 363.847656 C 238.105469 364.722656 235.199219 365.527344 232.273438 366.261719 C 229.347656 366.992188 226.40625 367.652344 223.445312 368.242188 C 220.488281 368.832031 217.519531 369.347656 214.535156 369.789062 C 211.550781 370.230469 208.558594 370.601562 205.558594 370.894531 C 202.554688 371.191406 199.550781 371.414062 196.535156 371.5625 C 193.523438 371.710938 190.511719 371.78125 187.496094 371.785156 C 184.476562 371.78125 181.464844 371.710938 178.453125 371.5625 C 175.4375 371.414062 172.433594 371.191406 169.429688 370.894531 C 166.429688 370.601562 163.4375 370.230469 160.453125 369.789062 C 157.46875 369.347656 154.5 368.832031 151.542969 368.242188 C 148.582031 367.652344 145.640625 366.992188 142.714844 366.261719 C 139.789062 365.527344 136.882812 364.722656 133.996094 363.847656 C 131.113281 362.972656 128.25 362.027344 125.410156 361.011719 C 122.570312 359.996094 119.757812 358.910156 116.96875 357.753906 C 114.183594 356.601562 111.425781 355.378906 108.699219 354.089844 C 105.972656 352.800781 103.28125 351.445312 100.621094 350.023438 C 97.960938 348.601562 95.335938 347.113281 92.75 345.5625 C 90.164062 344.011719 87.617188 342.402344 85.109375 340.726562 C 82.601562 339.050781 80.136719 337.3125 77.714844 335.515625 C 75.289062 333.71875 72.914062 331.863281 70.582031 329.953125 C 68.25 328.039062 65.96875 326.070312 63.734375 324.042969 C 61.5 322.019531 59.316406 319.9375 57.183594 317.804688 C 55.050781 315.671875 52.96875 313.488281 50.945312 311.253906 C 48.917969 309.019531 46.949219 306.738281 45.035156 304.40625 C 43.125 302.074219 41.269531 299.699219 39.472656 297.273438 C 37.675781 294.851562 35.9375 292.386719 34.261719 289.878906 C 32.585938 287.371094 30.976562 284.824219 29.425781 282.238281 C 27.875 279.652344 26.386719 277.027344 24.964844 274.367188 C 23.542969 271.707031 22.1875 269.015625 20.898438 266.289062 C 19.609375 263.5625 18.386719 260.804688 17.234375 258.019531 C 16.078125 255.230469 14.992188 252.417969 13.976562 249.578125 C 12.960938 246.738281 12.015625 243.875 11.140625 240.992188 C 10.265625 238.105469 9.460938 235.199219 8.726562 232.273438 C 7.996094 229.347656 7.335938 226.40625 6.746094 223.445312 C 6.15625 220.488281 5.640625 217.519531 5.199219 214.535156 C 4.757812 211.550781 4.386719 208.558594 4.09375 205.558594 C 3.796875 202.554688 3.574219 199.550781 3.425781 196.535156 C 3.277344 193.523438 3.207031 190.511719 3.207031 187.496094 C 3.207031 184.476562 3.277344 181.464844 3.425781 178.453125 C 3.574219 175.4375 3.796875 172.433594 4.09375 169.429688 C 4.386719 166.429688 4.757812 163.4375 5.199219 160.453125 C 5.640625 157.46875 6.15625 154.5 6.746094 151.542969 C 7.335938 148.582031 7.996094 145.640625 8.726562 142.714844 C 9.460938 139.789062 10.265625 136.882812 11.140625 133.996094 C 12.015625 131.113281 12.960938 128.25 13.976562 125.410156 C 14.992188 122.570312 16.078125 119.757812 17.234375 116.96875 C 18.386719 114.183594 19.609375 111.425781 20.898438 108.699219 C 22.1875 105.972656 23.542969 103.28125 24.964844 100.621094 C 26.386719 97.960938 27.875 95.335938 29.425781 92.75 C 30.976562 90.164062 32.585938 87.617188 34.261719 85.109375 C 35.9375 82.601562 37.675781 80.136719 39.472656 77.714844 C 41.269531 75.289062 43.125 72.914062 45.035156 70.582031 C 46.949219 68.25 48.917969 65.96875 50.945312 63.734375 C 52.96875 61.5 55.050781 59.316406 57.183594 57.183594 C 59.316406 55.050781 61.5 52.96875 63.734375 50.945312 C 65.96875 48.917969 68.25 46.949219 70.582031 45.035156 C 72.914062 43.125 75.289062 41.269531 77.714844 39.472656 C 80.136719 37.675781 82.601562 35.9375 85.109375 34.261719 C 87.617188 32.585938 90.164062 30.976562 92.75 29.425781 C 95.335938 27.875 97.960938 26.386719 100.621094 24.964844 C 103.28125 23.542969 105.972656 22.1875 108.699219 20.898438 C 111.425781 19.609375 114.183594 18.386719 116.96875 17.234375 C 119.757812 16.078125 122.570312 14.992188 125.410156 13.976562 C 128.25 12.960938 131.113281 12.015625 133.996094 11.140625 C 136.882812 10.265625 139.789062 9.460938 142.714844 8.726562 C 145.640625 7.996094 148.582031 7.335938 151.542969 6.746094 C 154.5 6.15625 157.46875 5.640625 160.453125 5.199219 C 163.4375 4.757812 166.429688 4.386719 169.429688 4.09375 C 172.433594 3.796875 175.4375 3.574219 178.453125 3.425781 C 181.464844 3.277344 184.476562 3.207031 187.496094 3.207031 C 190.511719 3.207031 193.523438 3.277344 196.535156 3.425781 C 199.550781 3.574219 202.554688 3.796875 205.558594 4.09375 C 208.558594 4.386719 211.550781 4.757812 214.535156 5.199219 C 217.519531 5.640625 220.488281 6.15625 223.445312 6.746094 C 226.40625 7.335938 229.347656 7.996094 232.273438 8.726562 C 235.199219 9.460938 238.105469 10.265625 240.992188 11.140625 C 243.875 12.015625 246.738281 12.960938 249.578125 13.976562 C 252.417969 14.992188 255.230469 16.078125 258.019531 17.234375 C 260.804688 18.386719 263.5625 19.609375 266.289062 20.898438 C 269.015625 22.1875 271.707031 23.542969 274.367188 24.964844 C 277.027344 26.386719 279.652344 27.875 282.238281 29.425781 C 284.824219 30.976562 287.371094 32.585938 289.878906 34.261719 C 292.386719 35.9375 294.851562 37.675781 297.273438 39.472656 C 299.699219 41.269531 302.074219 43.125 304.40625 45.035156 C 306.738281 46.949219 309.019531 48.917969 311.253906 50.945312 C 313.488281 52.96875 315.671875 55.050781 317.804688 57.183594 C 319.9375 59.316406 322.019531 61.5 324.042969 63.734375 C 326.070312 65.96875 328.039062 68.25 329.953125 70.582031 C 331.863281 72.914062 333.71875 75.289062 335.515625 77.714844 C 337.3125 80.136719 339.050781 82.601562 340.726562 85.109375 C 342.402344 87.617188 344.011719 90.164062 345.5625 92.75 C 347.113281 95.335938 348.601562 97.960938 350.023438 100.621094 C 351.445312 103.28125 352.800781 105.972656 354.089844 108.699219 C 355.378906 111.425781 356.601562 114.183594 357.753906 116.96875 C 358.910156 119.757812 359.996094 122.570312 361.011719 125.410156 C 362.027344 128.25 362.972656 131.113281 363.847656 133.996094 C 364.722656 136.882812 365.527344 139.789062 366.261719 142.714844 C 366.992188 145.640625 367.652344 148.582031 368.242188 151.542969 C 368.832031 154.5 369.347656 157.46875 369.789062 160.453125 C 370.230469 163.4375 370.601562 166.429688 370.894531 169.429688 C 371.191406 172.433594 371.414062 175.4375 371.5625 178.453125 C 371.710938 181.464844 371.785156 184.476562 371.785156 187.496094 Z M 371.785156 187.496094 " fill-opacity="1" fill-rule="nonzero"/></g><path fill="#ffffff" d="M 232.15625 141.964844 C 231.722656 141.964844 231.722656 141.964844 231.289062 141.964844 C 230.421875 141.53125 229.554688 140.664062 229.554688 139.363281 L 229.554688 116.8125 L 218.28125 116.8125 C 216.980469 116.8125 216.113281 115.945312 215.679688 115.511719 C 215.246094 114.644531 215.246094 113.34375 215.679688 112.910156 L 236.058594 77.789062 C 236.492188 76.921875 237.792969 76.488281 238.660156 76.488281 C 239.960938 76.921875 240.828125 77.789062 240.828125 79.089844 L 241.261719 102.503906 L 252.105469 102.503906 C 252.972656 102.503906 253.839844 102.9375 254.273438 103.804688 C 254.707031 104.671875 254.707031 105.539062 254.273438 106.40625 L 234.324219 140.664062 C 233.890625 141.53125 233.023438 141.964844 232.15625 141.964844 Z M 167.546875 298.5 C 156.707031 298.5 147.601562 289.394531 147.601562 278.554688 C 147.601562 277.253906 147.601562 276.386719 148.035156 275.085938 C 146.734375 275.519531 145 275.519531 143.699219 275.519531 C 132.859375 275.519531 123.75 266.847656 123.75 255.574219 C 123.75 250.804688 125.488281 245.597656 128.957031 242.128906 C 122.015625 238.660156 117.679688 231.722656 117.679688 224.351562 C 117.679688 214.8125 123.75 207.007812 132.425781 204.839844 C 129.390625 201.371094 128.089844 197.035156 128.089844 192.265625 C 128.089844 181.421875 137.195312 172.316406 148.035156 172.316406 C 148.902344 172.316406 149.335938 172.316406 150.203125 172.316406 C 150.203125 171.882812 149.769531 171.015625 149.769531 170.148438 C 149.769531 158.875 158.875 150.203125 170.148438 150.203125 C 175.351562 150.203125 180.554688 152.371094 184.457031 156.273438 C 188.796875 152.371094 194.433594 150.203125 200.070312 150.203125 C 212.210938 150.203125 222.183594 158.875 222.183594 170.148438 C 222.183594 171.015625 221.75 171.882812 221.75 172.316406 C 222.617188 172.316406 223.484375 172.316406 224.351562 172.316406 C 236.058594 172.316406 246.03125 181.421875 246.03125 192.265625 C 246.03125 197.035156 244.296875 201.371094 241.261719 204.839844 C 250.371094 207.007812 257.308594 214.8125 257.308594 224.351562 C 257.308594 231.722656 252.539062 238.660156 245.164062 242.128906 C 248.636719 246.03125 250.804688 250.804688 250.804688 255.574219 C 250.804688 266.847656 240.828125 275.519531 229.121094 275.519531 C 227.386719 275.519531 225.652344 275.519531 224.351562 275.085938 C 224.351562 276.386719 224.351562 277.253906 224.351562 278.554688 C 224.351562 289.394531 214.8125 298.5 202.671875 298.5 C 195.300781 298.5 188.363281 295.03125 184.457031 289.394531 C 180.988281 295.03125 174.917969 298.5 167.546875 298.5 Z M 187.496094 160.609375 C 189.230469 163.210938 190.097656 166.679688 190.097656 170.148438 L 187.929688 278.554688 C 187.929688 279.855469 187.496094 281.589844 187.0625 282.890625 C 189.664062 289.394531 195.734375 293.296875 202.671875 293.296875 C 211.777344 293.296875 219.148438 286.792969 219.148438 278.554688 C 219.148438 276.386719 218.714844 274.21875 217.847656 272.050781 C 217.414062 271.183594 217.414062 269.882812 218.28125 269.449219 C 219.148438 268.582031 220.449219 268.148438 221.316406 268.582031 C 223.484375 269.882812 226.519531 270.316406 229.121094 270.316406 C 238.226562 270.316406 245.597656 263.8125 245.597656 255.574219 C 245.597656 250.804688 242.996094 246.03125 238.226562 243.429688 C 237.359375 242.996094 236.925781 241.695312 237.359375 240.828125 C 237.359375 239.527344 238.226562 238.660156 239.09375 238.660156 C 246.898438 236.925781 252.105469 230.855469 252.105469 224.351562 C 252.105469 216.113281 244.730469 209.175781 235.625 209.175781 L 235.191406 209.175781 C 234.324219 209.175781 233.023438 208.742188 232.589844 207.441406 C 232.589844 206.140625 233.023438 205.273438 233.890625 204.40625 C 238.226562 201.804688 240.828125 197.035156 240.828125 192.265625 C 240.828125 184.023438 233.457031 177.519531 224.351562 177.519531 C 222.617188 177.519531 220.882812 177.953125 219.148438 178.386719 C 218.28125 178.386719 216.980469 178.386719 216.546875 177.519531 C 215.679688 176.652344 215.679688 175.785156 216.113281 174.917969 C 216.546875 173.183594 216.980469 171.882812 216.980469 170.148438 C 216.980469 161.910156 209.175781 155.40625 200.070312 155.40625 C 195.300781 155.40625 190.964844 157.140625 187.496094 160.609375 Z M 151.9375 268.582031 C 152.371094 268.582031 153.238281 268.582031 153.671875 269.015625 C 154.539062 269.882812 154.539062 271.183594 154.105469 272.050781 C 153.238281 274.21875 152.804688 276.386719 152.804688 278.554688 C 152.804688 286.792969 159.308594 293.296875 167.546875 293.296875 C 174.484375 293.296875 180.121094 288.960938 181.855469 282.457031 C 182.289062 281.15625 182.722656 279.855469 182.722656 278.554688 L 184.890625 170.148438 C 184.890625 167.113281 184.023438 164.078125 182.289062 161.910156 L 182.289062 161.476562 C 181.855469 161.042969 181.421875 160.175781 180.554688 159.742188 C 177.953125 157.140625 174.050781 155.40625 170.148438 155.40625 C 161.910156 155.40625 154.972656 161.910156 154.972656 170.148438 C 154.972656 171.882812 155.40625 173.617188 155.839844 174.917969 C 156.273438 175.785156 155.839844 177.085938 155.40625 177.519531 C 154.539062 178.386719 153.671875 178.386719 152.804688 178.386719 C 151.070312 177.953125 149.769531 177.519531 148.035156 177.519531 C 139.796875 177.519531 133.292969 184.023438 133.292969 192.265625 C 133.292969 197.035156 135.460938 201.804688 139.363281 204.40625 C 140.664062 205.273438 140.664062 206.574219 140.664062 207.441406 C 140.230469 208.742188 139.363281 209.175781 138.0625 209.175781 L 137.628906 209.175781 C 129.390625 209.175781 122.882812 216.113281 122.882812 224.351562 C 122.882812 230.855469 127.65625 237.359375 134.59375 238.660156 C 135.460938 239.09375 136.328125 239.527344 136.328125 240.828125 C 136.761719 241.695312 136.328125 242.5625 135.460938 243.429688 C 131.125 246.03125 128.957031 250.804688 128.957031 255.574219 C 128.957031 263.8125 135.460938 270.316406 143.699219 270.316406 C 146.300781 270.316406 148.46875 269.882812 150.636719 268.582031 C 151.070312 268.582031 151.503906 268.582031 151.9375 268.582031 Z M 163.210938 197.035156 C 161.910156 197.035156 161.042969 196.167969 160.609375 194.867188 C 160.609375 193.566406 161.476562 192.265625 162.777344 192.265625 C 166.246094 191.832031 168.414062 188.796875 168.414062 185.757812 C 168.414062 182.722656 166.246094 180.121094 163.210938 179.253906 C 161.910156 179.253906 161.042969 177.519531 161.476562 176.21875 C 161.910156 174.917969 163.210938 174.050781 164.511719 174.484375 C 169.714844 175.351562 173.617188 180.121094 173.617188 185.757812 C 173.617188 191.398438 169.28125 196.601562 163.644531 197.035156 C 163.644531 197.035156 163.210938 197.035156 163.210938 197.035156 Z M 209.175781 197.035156 C 203.105469 196.601562 198.769531 191.398438 198.769531 185.757812 C 198.769531 180.121094 202.671875 175.351562 208.308594 174.484375 C 209.609375 174.050781 210.910156 174.917969 211.34375 176.21875 C 211.34375 177.519531 210.476562 179.253906 209.175781 179.253906 C 206.140625 180.121094 203.972656 182.722656 203.972656 185.757812 C 203.972656 188.796875 206.574219 191.832031 209.609375 192.265625 C 210.910156 192.265625 212.210938 193.566406 211.777344 194.867188 C 211.777344 196.167969 210.476562 197.035156 209.175781 197.035156 Z M 167.546875 233.023438 C 162.34375 233.023438 158.007812 231.722656 154.539062 228.253906 C 147.167969 221.75 146.300781 210.476562 146.300781 210.042969 C 146.300781 208.742188 147.601562 207.441406 148.902344 207.441406 C 150.203125 207.441406 151.503906 208.308594 151.503906 210.042969 C 151.503906 210.042969 152.371094 219.582031 158.007812 224.785156 C 160.609375 226.953125 164.511719 228.253906 168.847656 227.820312 C 170.148438 227.820312 171.449219 228.6875 171.882812 230.421875 C 171.882812 231.722656 170.582031 233.023438 169.28125 233.023438 C 168.847656 233.023438 167.980469 233.023438 167.546875 233.023438 Z M 207.441406 233.023438 C 207.007812 233.023438 206.140625 233.023438 205.707031 233.023438 C 204.40625 233.023438 203.105469 231.722656 203.105469 230.421875 C 203.105469 228.6875 204.40625 227.820312 206.140625 227.820312 C 210.476562 228.253906 213.945312 226.953125 216.980469 224.785156 C 222.617188 219.582031 223.484375 210.042969 223.484375 210.042969 C 223.484375 208.308594 224.785156 207.441406 226.085938 207.441406 C 227.386719 207.441406 228.6875 208.742188 228.6875 210.042969 C 228.253906 210.476562 227.820312 221.75 220.449219 228.253906 C 216.980469 231.722656 212.644531 233.023438 207.441406 233.023438 Z M 163.210938 275.085938 C 161.910156 275.085938 161.042969 274.21875 160.609375 272.917969 C 160.609375 271.617188 161.476562 270.316406 162.777344 270.316406 C 166.246094 269.882812 168.414062 266.847656 168.414062 263.8125 C 168.414062 260.777344 166.246094 258.175781 163.210938 257.308594 C 161.910156 257.308594 161.042969 255.574219 161.476562 254.273438 C 161.910156 252.972656 163.210938 252.105469 164.511719 252.539062 C 169.714844 253.40625 173.617188 258.175781 173.617188 263.8125 C 173.617188 269.449219 169.28125 274.652344 163.644531 275.085938 C 163.644531 275.085938 163.210938 275.085938 163.210938 275.085938 Z M 211.34375 275.519531 C 211.34375 275.519531 210.910156 275.519531 210.910156 275.085938 C 205.273438 274.652344 200.9375 269.449219 200.9375 263.8125 C 200.9375 258.175781 204.839844 253.40625 210.042969 252.539062 C 211.34375 252.105469 213.078125 252.972656 213.078125 254.273438 C 213.511719 256.007812 212.644531 257.308594 211.34375 257.308594 C 208.308594 258.175781 206.140625 260.777344 206.140625 263.8125 C 206.140625 266.847656 208.308594 269.882812 211.777344 270.316406 C 213.078125 270.316406 213.945312 271.617188 213.945312 272.917969 C 213.511719 274.21875 212.644531 275.519531 211.34375 275.519531 Z M 137.195312 141.964844 C 136.761719 141.964844 136.761719 141.964844 136.328125 141.964844 C 135.460938 141.53125 134.59375 140.664062 134.59375 139.363281 L 134.59375 116.8125 L 122.882812 116.8125 C 122.015625 116.8125 121.148438 115.945312 120.714844 115.511719 C 120.28125 114.644531 120.28125 113.34375 120.714844 112.910156 L 141.097656 77.789062 C 141.53125 76.921875 142.832031 76.488281 143.699219 76.488281 C 145 76.921875 145.867188 77.789062 145.867188 79.089844 L 146.300781 102.503906 L 156.707031 102.503906 C 158.007812 102.503906 158.875 102.9375 159.308594 103.804688 C 159.742188 104.671875 159.742188 105.539062 159.308594 106.40625 L 139.363281 140.664062 C 138.929688 141.53125 138.0625 141.964844 137.195312 141.964844 Z M 127.65625 111.609375 L 137.195312 111.609375 C 138.496094 111.609375 139.796875 112.476562 139.796875 114.210938 L 139.796875 129.824219 L 152.371094 107.707031 L 143.699219 107.707031 C 141.964844 107.707031 141.097656 106.40625 141.097656 105.105469 L 140.664062 88.628906 Z M 184.457031 141.964844 C 184.457031 141.964844 184.023438 141.964844 184.023438 141.964844 C 182.722656 141.53125 181.855469 140.664062 181.855469 139.363281 L 181.855469 116.8125 L 170.582031 116.8125 C 169.714844 116.8125 168.847656 115.945312 168.414062 115.511719 C 167.980469 114.644531 167.980469 113.34375 168.414062 112.910156 L 188.363281 77.789062 C 189.230469 76.921875 190.097656 76.488281 191.398438 76.488281 C 192.699219 76.921875 193.132812 77.789062 193.132812 79.089844 L 193.566406 102.503906 L 204.40625 102.503906 C 205.273438 102.503906 206.140625 102.9375 206.574219 103.804688 C 207.007812 104.671875 207.007812 105.539062 206.574219 106.40625 L 187.0625 140.664062 C 186.191406 141.53125 185.324219 141.964844 184.457031 141.964844 Z M 174.917969 111.609375 L 184.457031 111.609375 C 186.191406 111.609375 187.0625 112.476562 187.0625 114.210938 L 187.0625 129.824219 L 200.070312 107.707031 L 190.964844 107.707031 C 189.664062 107.707031 188.363281 106.40625 188.363281 105.105469 L 188.363281 88.628906 Z M 222.617188 111.609375 L 232.15625 111.609375 C 233.457031 111.609375 234.757812 112.476562 234.757812 114.210938 L 234.757812 129.824219 L 247.332031 107.707031 L 238.660156 107.707031 C 237.359375 107.707031 236.058594 106.40625 236.058594 105.105469 L 235.625 88.628906 Z M 222.617188 111.609375 " fill-opacity="1" fill-rule="evenodd"/><g clip-path="url(#46a389be29)"><g clip-path="url(#810095d164)"><g mask="url(#a861da2c82)"><g transform="matrix(1, 0, 0, 1, 184, 335)"><g clip-path="url(#ee4a6177bf)"><g clip-path="url(#f9594bbc0c)"><g clip-path="url(#c6dc2cf0f6)"><rect x="-266.5" width="540" fill="#9747ff" height="539.999987" y="-417.499998" fill-opacity="1"/></g></g></g></g></g></g></g></svg>