<svg xmlns="http://www.w3.org/2000/svg" xmlns:xlink="http://www.w3.org/1999/xlink" width="500" zoomAndPan="magnify" viewBox="0 0 375 374.999991" height="500" preserveAspectRatio="xMidYMid meet" version="1.0"><defs><filter x="0%" y="0%" width="100%" height="100%" id="fd64a1eb05"><feColorMatrix values="0 0 0 0 1 0 0 0 0 1 0 0 0 0 1 0 0 0 1 0" color-interpolation-filters="sRGB"/></filter><clipPath id="a479764b25"><path d="M 137 220 L 238 220 L 238 336.9375 L 137 336.9375 Z M 137 220 " clip-rule="nonzero"/></clipPath><clipPath id="f8747948af"><path d="M 0 38.4375 L 375 38.4375 L 375 210 L 0 210 Z M 0 38.4375 " clip-rule="nonzero"/></clipPath><clipPath id="2929228ee9"><path d="M 189.703125 192.664062 L 193.960938 192.664062 L 193.960938 196.273438 L 189.703125 196.273438 Z M 189.703125 192.664062 " clip-rule="nonzero"/></clipPath><clipPath id="d9e9168327"><path d="M 193.949219 193.949219 C 192.074219 196.949219 190.273438 196.425781 189.898438 195.75 C 189.523438 195.148438 189.824219 193.273438 190.425781 192.824219 C 191.023438 192.375 193.425781 193.050781 193.425781 193.050781 " clip-rule="nonzero"/></clipPath><mask id="8582038a28"><g filter="url(#fd64a1eb05)"><rect x="-37.5" width="450" fill="#000000" y="-37.499999" height="449.999989" fill-opacity="0.01"/></g></mask><clipPath id="2392973bc1"><path d="M 0.703125 0.664062 L 4.960938 0.664062 L 4.960938 4.273438 L 0.703125 4.273438 Z M 0.703125 0.664062 " clip-rule="nonzero"/></clipPath><clipPath id="05b1522d39"><path d="M 4.949219 1.949219 C 3.074219 4.949219 1.273438 4.425781 0.898438 3.75 C 0.523438 3.148438 0.824219 1.273438 1.425781 0.824219 C 2.023438 0.375 4.425781 1.050781 4.425781 1.050781 " clip-rule="nonzero"/></clipPath><clipPath id="bc8859b0b8"><rect x="0" width="5" y="0" height="5"/></clipPath></defs><g clip-path="url(#a479764b25)"><path fill="#ff914d" d="M 153.328125 336.492188 C 152.410156 336.492188 151.191406 336.183594 150.582031 335.574219 C 148.445312 334.050781 147.53125 331.304688 148.445312 328.863281 L 175.90625 267.53125 L 142.953125 267.53125 C 141.121094 267.53125 139.289062 266.617188 138.375 265.089844 C 137.460938 263.566406 137.152344 261.734375 138.070312 259.90625 L 156.769531 220.222656 L 218.261719 220.222656 L 209.164062 236.105469 L 232.351562 236.105469 C 234.488281 236.105469 236.320312 237.324219 237.234375 239.15625 C 238.152344 240.988281 237.84375 243.425781 236.320312 244.953125 L 157.597656 334.660156 C 156.070312 335.882812 154.546875 336.492188 153.328125 336.492188 Z M 153.328125 336.492188 " fill-opacity="1" fill-rule="evenodd"/></g><g clip-path="url(#f8747948af)"><path fill="#6208b2" d="M 115.410156 103.855469 C 118.644531 103.160156 121.554688 105.601562 121.875 108.742188 C 122.523438 112.234375 120.257812 115.375 117.351562 115.722656 C 115.734375 116.421875 114.117188 116.773438 112.824219 116.773438 C 107.648438 116.773438 103.125 115.027344 99.246094 111.535156 C 89.492188 103.164062 86.121094 86.851562 85.097656 78.605469 C 83.945312 78.453125 82.652344 78.375 81.144531 78.375 C 66.835938 78.375 54.625 89.039062 51.414062 104.144531 C 53.757812 109.609375 62.386719 126.195312 79.527344 126.195312 C 82.757812 126.195312 85.34375 128.988281 85.34375 132.480469 C 85.34375 135.96875 82.4375 138.761719 79.527344 138.761719 C 57.964844 138.761719 46.664062 120.914062 42.417969 111.953125 C 30.027344 116.308594 21.335938 128.808594 21.335938 143.300781 C 21.335938 144.988281 21.414062 146.515625 21.601562 147.957031 C 32.988281 147.667969 50.378906 152.480469 59.160156 172.621094 C 60.453125 175.765625 59.160156 179.253906 56.574219 180.652344 C 55.601562 181 54.957031 181 53.988281 181 C 51.722656 181 49.785156 179.601562 48.8125 177.507812 C 41.226562 159.660156 25.007812 159.714844 19.769531 160.203125 C 19.347656 160.457031 18.902344 160.652344 18.425781 160.753906 C 7.757812 162.847656 0 172.96875 0 184.839844 C 0 198.800781 10.34375 209.96875 23.277344 209.96875 L 166.75 209.96875 C 168.285156 209.171875 170.140625 209.148438 171.660156 209.96875 L 221.210938 209.96875 C 222.628906 209.324219 224.261719 209.273438 225.691406 209.96875 L 352.046875 209.96875 C 364.65625 209.96875 375 198.800781 375 184.839844 C 375 175.921875 370.320312 167.679688 363.109375 163.089844 C 351.527344 162.695312 333.242188 164.347656 327.480469 171.226562 C 326.1875 172.621094 325.539062 174.367188 325.863281 176.8125 C 326.1875 180.300781 323.921875 183.09375 320.691406 183.441406 L 319.722656 183.441406 C 316.8125 183.441406 314.226562 181 314.226562 177.855469 C 313.578125 172.273438 315.519531 167.035156 319.074219 162.847656 C 328.304688 152.339844 349.089844 150.980469 359.730469 151.070312 C 358.617188 134.023438 345.5 120.613281 329.417969 120.613281 C 328.980469 120.613281 328.554688 120.613281 328.144531 120.613281 C 327.042969 127.171875 324.140625 138.332031 316.8125 145.042969 C 312.609375 148.535156 307.433594 150.28125 301.941406 150.28125 C 300.96875 150.28125 299.675781 150.28125 298.707031 149.933594 C 295.476562 149.582031 293.535156 146.441406 293.859375 143.300781 C 294.179688 139.808594 297.089844 137.714844 300 138.0625 C 303.878906 138.414062 306.789062 137.714844 309.375 135.269531 C 314.894531 130.398438 316.714844 120.480469 317.253906 116.277344 C 317.175781 115.878906 317.132812 115.460938 317.132812 115.027344 C 317.132812 114.328125 317.132812 113.628906 317.457031 112.933594 L 317.457031 112.582031 C 317.457031 96.785156 306.816406 83.351562 292.308594 80.265625 C 286.140625 82.410156 264.375 91.808594 268.644531 116.074219 C 269.289062 119.214844 267.351562 122.707031 264.117188 123.054688 L 263.148438 123.054688 C 260.558594 123.054688 257.972656 120.960938 257.652344 118.167969 C 252.957031 91.632812 270.667969 76.558594 284.597656 70.332031 C 277.484375 56.1875 263.382812 46.960938 248.277344 46.960938 C 239.261719 46.960938 230.507812 50.066406 223.195312 56.027344 C 224.164062 66.675781 224.804688 96.074219 204.632812 104.207031 C 203.988281 104.554688 203.339844 104.902344 202.695312 104.902344 C 200.429688 104.902344 198.167969 103.507812 197.519531 101.0625 C 196.550781 97.921875 197.84375 94.433594 200.753906 93.035156 C 214.113281 87.625 212.613281 63.066406 211.941406 56.121094 C 206.726562 45.453125 196.457031 38.582031 185.238281 38.582031 C 174.128906 38.582031 163.859375 45.207031 158.566406 55.652344 C 162.195312 64.464844 168.832031 86.953125 153.878906 107 C 152.910156 108.742188 151.292969 109.441406 149.675781 109.441406 C 148.382812 109.441406 147.089844 109.09375 146.121094 108.046875 C 143.535156 105.953125 143.210938 102.113281 145.152344 99.320312 C 157.472656 82.921875 149.726562 63.230469 147.585938 58.96875 C 141.804688 52.34375 133.925781 48.707031 125.429688 48.707031 C 111.410156 48.707031 99.488281 58.757812 96.042969 73.238281 C 96.464844 79.523438 99.101562 95.632812 106.359375 101.761719 C 108.945312 103.855469 111.855469 104.554688 115.410156 103.855469 Z M 112.824219 131.082031 C 113.148438 131.78125 119.613281 146.09375 133.835938 143.648438 C 137.070312 143.300781 139.65625 145.394531 140.304688 148.886719 C 140.625 152.375 138.6875 155.167969 135.453125 155.867188 C 133.835938 155.867188 132.21875 156.214844 130.925781 156.214844 C 115.734375 156.214844 105.710938 143.648438 102.800781 136.320312 C 101.507812 133.179688 102.800781 129.6875 105.390625 128.289062 C 108.296875 126.894531 111.53125 128.289062 112.824219 131.082031 Z M 132.21875 179.453125 C 133.804688 166.074219 146.875 158.617188 147.738281 158.308594 C 150.648438 156.914062 153.882812 157.960938 155.496094 161.101562 C 156.789062 164.242188 155.820312 167.734375 152.910156 169.480469 C 152.707031 169.480469 148.59375 171.867188 145.867188 175.753906 C 150.832031 175.269531 155.253906 176.175781 159.054688 178.554688 C 167.136719 183.441406 168.753906 192.863281 169.074219 193.914062 C 169.722656 197.402344 167.457031 200.542969 164.550781 200.894531 L 163.253906 200.894531 C 160.667969 200.894531 158.082031 198.800781 157.761719 196.007812 C 157.761719 196.007812 156.789062 191.472656 153.234375 189.027344 C 149.878906 186.914062 145.316406 187.671875 141.636719 189.042969 C 140.820312 189.796875 139.800781 190.289062 138.6875 190.421875 C 138.628906 190.359375 138.570312 190.3125 138.515625 190.269531 C 118.050781 197.425781 105.628906 183.230469 102.15625 174.367188 C 100.863281 171.226562 102.15625 167.734375 105.066406 166.335938 C 107.976562 164.941406 111.207031 166.335938 112.5 169.476562 C 113.09375 171.078125 118.585938 182.667969 132.21875 179.453125 Z M 200.109375 173.667969 C 196.875 173.667969 194.289062 170.875 194.289062 167.386719 C 194.289062 165.292969 194.289062 162.847656 194.613281 160.753906 C 195.257812 143.996094 195.257812 137.367188 178.125 134.574219 C 174.894531 134.222656 172.953125 131.082031 173.277344 127.59375 C 173.601562 124.101562 176.507812 122.007812 179.742188 122.355469 C 207.21875 126.546875 206.574219 144.695312 205.925781 161.101562 L 205.925781 167.386719 C 205.925781 170.875 203.339844 173.667969 200.109375 173.667969 Z M 231.789062 195.308594 C 229.203125 195.308594 226.617188 193.214844 226.292969 190.074219 C 223.195312 171.535156 233.089844 161.726562 241.675781 157.660156 C 240.25 148.277344 242.601562 141.085938 242.78125 140.507812 C 243.75 137.367188 246.980469 135.621094 249.890625 137.019531 C 252.800781 138.066406 254.417969 141.554688 253.449219 144.699219 C 253.367188 144.871094 253.03125 145.917969 252.785156 147.589844 L 253.769531 146.441406 C 256.035156 144 259.589844 144 261.855469 146.09375 C 264.117188 148.535156 264.117188 152.375 262.175781 154.820312 L 255.117188 162.949219 C 256.683594 166.257812 259.117188 169.695312 262.824219 172.96875 C 265.085938 175.066406 265.734375 178.90625 263.792969 181.695312 C 262.5 183.09375 260.882812 183.792969 259.265625 183.792969 C 257.972656 183.792969 256.679688 183.441406 255.710938 182.394531 C 250.820312 178.101562 247.5 173.558594 245.285156 169.105469 C 241.046875 171.25 235.457031 176.394531 237.285156 187.980469 C 237.929688 191.46875 235.667969 194.613281 232.757812 194.960938 C 232.433594 195.308594 232.113281 195.308594 231.789062 195.308594 Z M 231.789062 195.308594 " fill-opacity="1" fill-rule="evenodd"/></g><g clip-path="url(#2929228ee9)"><g clip-path="url(#d9e9168327)"><g mask="url(#8582038a28)"><g transform="matrix(1, 0, 0, 1, 189, 192)"><g clip-path="url(#bc8859b0b8)"><g clip-path="url(#2392973bc1)"><g clip-path="url(#05b1522d39)"><rect x="-271.5" width="540" fill="#6208b2" height="539.999987" y="-274.499998" fill-opacity="1"/></g></g></g></g></g></g></g></svg>